<?xml version="1.0" standalone="no"?>
<!DOCTYPE svg PUBLIC "-//W3C//DTD SVG 20010904//EN"
 "http://www.w3.org/TR/2001/REC-SVG-20010904/DTD/svg10.dtd">
<svg version="1.0" xmlns="http://www.w3.org/2000/svg"
 width="500.000000pt" height="500.000000pt" viewBox="0 0 500.000000 500.000000"
 preserveAspectRatio="xMidYMid meet">
<metadata>
Created by potrace 1.14, written by Peter Selinger 2001-2017
</metadata>
<g transform="translate(0.000000,500.000000) scale(0.100000,-0.100000)"
fill="#000000" stroke="none">
<path d="M2250 4988 c-113 -11 -364 -61 -470 -94 -261 -80 -541 -219 -750
-372 -255 -187 -506 -459 -662 -717 -136 -224 -256 -517 -302 -735 -3 -14 -9
-41 -14 -60 -5 -19 -10 -39 -10 -45 -32 -192 -37 -261 -37 -470 0 -165 9 -327
19 -344 2 -4 6 -29 10 -58 3 -28 8 -57 11 -65 2 -7 6 -24 9 -38 43 -253 186
-599 351 -852 106 -162 189 -262 340 -413 408 -407 931 -653 1515 -714 108
-11 465 -6 550 7 36 6 82 13 102 16 217 32 494 124 715 236 250 128 450 273
643 469 141 143 174 182 277 326 45 64 177 280 181 298 1 4 12 28 26 55 53
106 142 351 171 472 53 220 70 369 70 610 0 194 -6 281 -30 414 -81 456 -264
850 -564 1211 -30 36 -244 249 -288 287 -192 165 -496 341 -738 428 -102 37
-116 42 -130 46 -123 36 -211 58 -305 74 -63 10 -131 22 -150 25 -58 10 -449
12 -540 3z m-393 -565 c-137 -233 -327 -573 -345 -617 -30 -73 -38 -197 -18
-271 31 -117 117 -231 216 -286 67 -37 162 -61 233 -58 78 3 113 12 211 56 69
31 86 35 145 31 78 -4 119 -28 147 -85 30 -64 14 -144 -40 -191 -34 -29 -34
-29 -197 -35 -164 -5 -212 -14 -315 -55 -197 -79 -366 -279 -418 -494 -15 -63
-22 -200 -12 -243 31 -136 59 -203 120 -289 71 -99 166 -174 281 -221 92 -38
121 -60 145 -110 18 -37 20 -62 20 -248 0 -184 2 -215 21 -269 43 -130 130
-211 259 -244 85 -21 165 -13 245 25 84 41 99 57 270 275 17 22 35 44 40 50 6
6 53 65 105 131 52 66 97 122 100 125 3 3 30 37 60 75 30 39 61 77 69 85 26
27 71 138 76 190 3 27 7 72 10 99 8 76 41 151 97 216 101 119 132 194 131 320
0 105 -24 162 -136 331 -51 77 -89 145 -92 164 -8 62 30 113 92 126 44 8 64 0
141 -58 111 -84 154 -102 247 -102 62 1 94 7 140 26 58 24 97 27 154 13 16 -4
117 -97 249 -228 l224 -222 -6 -79 c-30 -400 -187 -809 -425 -1106 -20 -24
-45 -56 -56 -69 -25 -32 -181 -188 -221 -221 -232 -196 -484 -330 -776 -415
-96 -28 -112 -31 -268 -55 -88 -14 -160 -17 -310 -15 -107 2 -211 6 -230 10
-19 3 -62 11 -95 16 -186 31 -413 109 -595 206 -91 47 -271 164 -306 197 -6 6
-31 27 -55 46 -240 193 -481 534 -589 835 -40 111 -42 118 -45 130 -2 6 -12
46 -23 90 -48 189 -57 268 -57 495 0 181 7 272 25 354 5 23 12 57 15 76 33
187 160 492 282 678 174 264 423 499 690 652 119 68 270 138 317 147 10 2 26
8 35 13 20 12 23 12 18 3z"/>
</g>
</svg>
