<svg width="250" height="250" viewBox="0 0 250 250" fill="none" xmlns="http://www.w3.org/2000/svg">
<path fill-rule="evenodd" clip-rule="evenodd" d="M250 125C250 158.152 236.83 189.946 213.388 213.388C189.946 236.83 158.152 250 125 250C91.8479 250 60.0537 236.83 36.6117 213.388C13.1696 189.946 0 158.152 0 125C0 91.8479 13.1696 60.0537 36.6117 36.6117C60.0537 13.1696 91.8479 0 125 0C158.152 0 189.946 13.1696 213.388 36.6117C236.83 60.0537 250 91.8479 250 125ZM226.516 128.188C225.928 146.743 220.265 164.782 210.143 180.345C200.022 195.908 185.828 208.399 169.105 216.46C152.381 224.521 133.768 227.844 115.289 226.068C96.8092 224.292 79.1698 217.485 64.2878 206.387C49.4057 195.289 37.8504 180.323 30.8775 163.118C23.9047 145.912 21.7812 127.125 24.7378 108.797C27.6944 90.4691 35.6179 73.3023 47.6473 59.1622C59.6767 45.022 75.3517 34.4495 92.9687 28.5937L76.9844 56.5625C74.5753 60.7911 73.5888 65.682 74.1703 70.5138C74.7519 75.3456 76.8707 79.8627 80.2144 83.3989C83.558 86.9352 87.9495 89.3033 92.7413 90.1542C97.533 91.0052 102.471 90.2938 106.828 88.125L109.563 86.7656C110.649 86.2211 111.847 85.9376 113.063 85.9375H115.344C116.676 85.9375 117.986 86.2783 119.15 86.9273C120.313 87.5764 121.291 88.5122 121.991 89.6458C122.691 90.7794 123.089 92.0731 123.148 93.4041C123.207 94.735 122.925 96.0589 122.328 97.25L121.891 98.1094C121.372 99.1454 120.576 100.017 119.591 100.627C118.606 101.236 117.471 101.56 116.313 101.562H108.469C102.657 101.563 96.9352 102.998 91.811 105.74C86.6867 108.482 82.3185 112.446 79.0937 117.281L78.4063 118.312C75.6083 122.511 73.8167 127.298 73.1709 132.302C72.5251 137.306 73.0425 142.392 74.6828 147.163C76.3231 151.934 79.0422 156.263 82.6284 159.812C86.2146 163.361 90.5712 166.035 95.3594 167.625C97.1569 168.223 98.7219 169.368 99.8345 170.902C100.947 172.435 101.551 174.278 101.562 176.172V192.578C101.561 196.384 102.742 200.097 104.942 203.202C107.143 206.308 110.254 208.653 113.846 209.912C117.438 211.172 121.332 211.284 124.99 210.233C128.649 209.182 131.89 207.021 134.266 204.047L159.438 172.578C162.438 168.828 164.062 164.203 164.062 159.422C164.062 154.484 166.062 149.672 169.578 146.141C173.051 142.668 175.217 138.103 175.71 133.216C176.202 128.33 174.991 123.424 172.281 119.328L165.031 108.453C164.297 107.323 163.983 105.971 164.142 104.633C164.301 103.294 164.925 102.054 165.903 101.127C166.882 100.201 168.154 99.6462 169.499 99.5601C170.844 99.474 172.177 99.8619 173.266 100.656L178.625 104.672C183.563 108.375 190.156 108.969 195.672 106.203C197.392 105.342 199.34 105.045 201.239 105.353C203.137 105.662 204.891 106.56 206.25 107.922L226.516 128.188Z" fill="black"/>
</svg>
